<svg width="232" height="32" viewBox="0 0 232 32" fill="none" xmlns="http://www.w3.org/2000/svg">
<path d="M231.41 11.6083H227.578V18.6614C227.578 19.2491 227.725 19.6786 228.019 19.9499C228.313 20.2212 228.742 20.3794 229.308 20.4246C229.873 20.4473 230.574 20.4359 231.41 20.3907V24.3581C228.403 24.6972 226.278 24.4146 225.035 23.5104C223.814 22.6061 223.204 20.9898 223.204 18.6614V11.6083H220.254V7.40361H223.204V3.97881L227.578 2.65636V7.40361H231.41V11.6083Z" fill="white"/>
<path d="M212.247 6.92889C214.1 6.92889 215.626 7.55056 216.824 8.79388C218.045 10.0372 218.655 11.7553 218.655 13.948V24.3581H214.281V14.4906C214.281 13.3603 213.976 12.5013 213.366 11.9135C212.755 11.3031 211.941 10.998 210.924 10.998C209.794 10.998 208.89 11.3484 208.211 12.0491C207.533 12.7499 207.194 13.8011 207.194 15.2027V24.3581H202.82V0.621826H207.194V9.30252C208.257 7.7201 209.941 6.92889 212.247 6.92889Z" fill="white"/>
<path d="M193.521 24.8328C190.967 24.8328 188.83 23.9738 187.112 22.2557C185.417 20.5377 184.569 18.4127 184.569 15.8808C184.569 13.349 185.417 11.224 187.112 9.50596C188.83 7.78791 190.967 6.92888 193.521 6.92888C195.171 6.92888 196.675 7.32448 198.031 8.11569C199.387 8.9069 200.416 9.96938 201.117 11.3031L197.353 13.5072C197.014 12.8064 196.494 12.2526 195.793 11.8457C195.115 11.4388 194.346 11.2353 193.487 11.2353C192.176 11.2353 191.091 11.6761 190.232 12.5578C189.373 13.4168 188.943 14.5245 188.943 15.8808C188.943 17.2146 189.373 18.3223 190.232 19.2039C191.091 20.0629 192.176 20.4925 193.487 20.4925C194.369 20.4925 195.149 20.3003 195.827 19.916C196.528 19.5091 197.048 18.9553 197.387 18.2545L201.184 20.4246C200.438 21.7584 199.387 22.8322 198.031 23.646C196.675 24.4372 195.171 24.8328 193.521 24.8328Z" fill="white"/>
<path d="M177.788 7.4036H182.162V24.3581H177.788V22.3575C176.477 24.0077 174.634 24.8328 172.261 24.8328C170 24.8328 168.056 23.9738 166.429 22.2557C164.824 20.5151 164.021 18.3901 164.021 15.8808C164.021 13.3716 164.824 11.2579 166.429 9.53987C168.056 7.79921 170 6.92888 172.261 6.92888C174.634 6.92888 176.477 7.754 177.788 9.40423V7.4036ZM169.718 19.3396C170.599 20.2212 171.718 20.662 173.075 20.662C174.431 20.662 175.55 20.2212 176.432 19.3396C177.336 18.4353 177.788 17.2824 177.788 15.8808C177.788 14.4793 177.336 13.3377 176.432 12.456C175.55 11.5518 174.431 11.0997 173.075 11.0997C171.718 11.0997 170.599 11.5518 169.718 12.456C168.836 13.3377 168.395 14.4793 168.395 15.8808C168.395 17.2824 168.836 18.4353 169.718 19.3396Z" fill="white"/>
<path d="M138.879 24.3581L132.233 0.621826H137.15L141.694 18.2206L146.644 0.621826H150.645L155.63 18.2206L160.174 0.621826H165.091L158.445 24.3581H153.121L148.645 8.69216L144.203 24.3581H138.879Z" fill="white"/>
<path d="M126.691 10.3198C127.098 9.23469 127.764 8.42087 128.691 7.87833C129.641 7.33579 130.692 7.06451 131.845 7.06451V11.9474C130.511 11.7892 129.313 12.0604 128.25 12.7612C127.211 13.462 126.691 14.6262 126.691 16.2538V24.3581H122.316V7.40361H126.691V10.3198Z" fill="white"/>
<path d="M106.988 17.678C107.576 19.803 109.169 20.8655 111.769 20.8655C113.442 20.8655 114.708 20.3003 115.567 19.17L119.093 21.2045C117.421 23.6234 114.956 24.8328 111.701 24.8328C108.898 24.8328 106.649 23.9851 104.953 22.2896C103.258 20.5942 102.41 18.4579 102.41 15.8808C102.41 13.3264 103.247 11.2014 104.919 9.50596C106.592 7.78791 108.74 6.92888 111.362 6.92888C113.849 6.92888 115.895 7.78791 117.5 9.50596C119.127 11.224 119.941 13.349 119.941 15.8808C119.941 16.446 119.885 17.045 119.772 17.678H106.988ZM106.92 14.2871H115.567C115.318 13.1342 114.798 12.2752 114.007 11.71C113.238 11.1449 112.357 10.8623 111.362 10.8623C110.187 10.8623 109.215 11.1675 108.446 11.7779C107.677 12.3656 107.169 13.202 106.92 14.2871Z" fill="white"/>
<path d="M92.6112 6.92889C94.8944 6.92889 96.8385 7.79922 98.4435 9.53988C100.071 11.2579 100.885 13.3716 100.885 15.8809C100.885 18.3901 100.071 20.5151 98.4435 22.2557C96.8385 23.9738 94.8944 24.8328 92.6112 24.8328C90.2375 24.8328 88.4064 24.0077 87.1179 22.3575V24.3581H82.7437V0.621826H87.1179V9.40425C88.4064 7.75401 90.2375 6.92889 92.6112 6.92889ZM88.4404 19.3396C89.322 20.2212 90.441 20.662 91.7973 20.662C93.1537 20.662 94.2727 20.2212 95.1543 19.3396C96.0586 18.4353 96.5107 17.2824 96.5107 15.8809C96.5107 14.4793 96.0586 13.3377 95.1543 12.4561C94.2727 11.5518 93.1537 11.0997 91.7973 11.0997C90.441 11.0997 89.322 11.5518 88.4404 12.4561C87.5587 13.3377 87.1179 14.4793 87.1179 15.8809C87.1179 17.2824 87.5587 18.4353 88.4404 19.3396Z" fill="white"/>
<path d="M76.6607 7.40361H81.3402L75.1687 24.3581C74.2871 26.7995 73.1116 28.5628 71.6422 29.6479C70.1954 30.7556 68.387 31.2529 66.2168 31.1399V27.0708C67.3923 27.0934 68.3191 26.8447 68.9973 26.3248C69.6981 25.8049 70.2519 24.9684 70.6589 23.8155L63.7075 7.40361H68.4887L72.8968 18.797L76.6607 7.40361Z" fill="white"/>
<path d="M53.1419 24.8328C49.5702 24.8328 46.6201 23.646 44.2917 21.2724C41.9633 18.8987 40.7991 15.9713 40.7991 12.49C40.7991 8.98603 41.9633 6.05856 44.2917 3.70754C46.6201 1.33391 49.5702 0.147095 53.1419 0.147095C55.2895 0.147095 57.2675 0.655729 59.076 1.673C60.9071 2.66766 62.3313 4.02402 63.3485 5.74207L59.3134 8.08179C58.7256 7.01931 57.8892 6.19419 56.8041 5.60644C55.719 4.99607 54.4983 4.69089 53.1419 4.69089C50.8361 4.69089 48.9711 5.41429 47.547 6.86107C46.1454 8.30785 45.4446 10.1841 45.4446 12.49C45.4446 14.7732 46.1454 16.6381 47.547 18.0849C48.9711 19.5317 50.8361 20.2551 53.1419 20.2551C54.4983 20.2551 55.719 19.9612 56.8041 19.3735C57.9118 18.7631 58.7482 17.938 59.3134 16.8981L63.3485 19.2378C62.3313 20.9559 60.9184 22.3236 59.1099 23.3408C57.3014 24.3355 55.3121 24.8328 53.1419 24.8328Z" fill="white"/>
<path fill-rule="evenodd" clip-rule="evenodd" d="M27.3281 8.737C29.5007 4.97393 26.785 0.270081 22.4397 0.270081L6.17891 0.270081C1.83368 0.27008 -0.882077 4.97393 1.29054 8.73701L9.42095 22.8193C11.5936 26.5824 17.0251 26.5824 19.1977 22.8193L27.3281 8.737ZM6.99544 14.8761C9.3679 18.9853 14.6223 20.3932 18.7316 18.0207C22.8408 15.6483 24.2487 10.3938 21.8762 6.28462C19.5038 2.1754 14.2493 0.767479 10.1401 3.13994C6.0309 5.5124 4.62298 10.7668 6.99544 14.8761Z" fill="#6BE992"/>
</svg>