<svg width="233" height="40" viewBox="0 0 233 40" fill="none" xmlns="http://www.w3.org/2000/svg">
<path d="M232.946 20.4528H229.114V27.5058C229.114 28.0936 229.261 28.5231 229.555 28.7944C229.849 29.0656 230.278 29.2239 230.843 29.2691C231.409 29.2917 232.109 29.2804 232.946 29.2352V33.2025C229.939 33.5416 227.814 33.259 226.571 32.3548C225.35 31.4506 224.74 29.8342 224.74 27.5058V20.4528H221.79V16.248H224.74V12.8232L229.114 11.5008V16.248H232.946V20.4528Z" fill="#113032"/>
<path d="M213.782 15.7733C215.636 15.7733 217.162 16.395 218.36 17.6383C219.581 18.8816 220.191 20.5997 220.191 22.7925V33.2025H215.817V23.335C215.817 22.2047 215.512 21.3457 214.901 20.7579C214.291 20.1476 213.477 19.8424 212.46 19.8424C211.33 19.8424 210.425 20.1928 209.747 20.8936C209.069 21.5944 208.73 22.6455 208.73 24.0471V33.2025H204.356V9.46626H208.73V18.147C209.792 16.5645 211.477 15.7733 213.782 15.7733Z" fill="#113032"/>
<path d="M195.057 33.6772C192.502 33.6772 190.366 32.8182 188.648 31.1002C186.953 29.3821 186.105 27.2571 186.105 24.7253C186.105 22.1934 186.953 20.0684 188.648 18.3504C190.366 16.6323 192.502 15.7733 195.057 15.7733C196.707 15.7733 198.21 16.1689 199.567 16.9601C200.923 17.7513 201.952 18.8138 202.653 20.1476L198.889 22.3517C198.55 21.6509 198.03 21.097 197.329 20.6901C196.651 20.2832 195.882 20.0798 195.023 20.0798C193.712 20.0798 192.627 20.5206 191.768 21.4022C190.909 22.2612 190.479 23.3689 190.479 24.7253C190.479 26.059 190.909 27.1667 191.768 28.0484C192.627 28.9074 193.712 29.3369 195.023 29.3369C195.905 29.3369 196.685 29.1447 197.363 28.7604C198.064 28.3535 198.583 27.7997 198.923 27.0989L202.72 29.2691C201.974 30.6028 200.923 31.6766 199.567 32.4904C198.21 33.2816 196.707 33.6772 195.057 33.6772Z" fill="#113032"/>
<path d="M179.324 16.248H183.698V33.2025H179.324V31.2019C178.013 32.8521 176.17 33.6772 173.797 33.6772C171.536 33.6772 169.592 32.8182 167.964 31.1002C166.359 29.3595 165.557 27.2345 165.557 24.7253C165.557 22.216 166.359 20.1024 167.964 18.3843C169.592 16.6436 171.536 15.7733 173.797 15.7733C176.17 15.7733 178.013 16.5984 179.324 18.2487V16.248ZM171.254 28.184C172.135 29.0656 173.254 29.5064 174.611 29.5064C175.967 29.5064 177.086 29.0656 177.968 28.184C178.872 27.2798 179.324 26.1268 179.324 24.7253C179.324 23.3237 178.872 22.1821 177.968 21.3005C177.086 20.3962 175.967 19.9441 174.611 19.9441C173.254 19.9441 172.135 20.3962 171.254 21.3005C170.372 22.1821 169.931 23.3237 169.931 24.7253C169.931 26.1268 170.372 27.2798 171.254 28.184Z" fill="#113032"/>
<path d="M140.415 33.2025L133.769 9.46626H138.686L143.229 27.065L148.18 9.46626H152.181L157.166 27.065L161.71 9.46626H166.627L159.98 33.2025H154.657L150.181 17.5366L145.739 33.2025H140.415Z" fill="#113032"/>
<path d="M128.227 19.1642C128.633 18.0791 129.3 17.2653 130.227 16.7228C131.177 16.1802 132.228 15.909 133.381 15.909V20.7919C132.047 20.6336 130.849 20.9049 129.786 21.6057C128.746 22.3065 128.227 23.4707 128.227 25.0983V33.2025H123.852V16.2481H128.227V19.1642Z" fill="#113032"/>
<path d="M108.524 26.5225C109.112 28.6474 110.705 29.7099 113.305 29.7099C114.978 29.7099 116.244 29.1447 117.103 28.0144L120.629 30.049C118.956 32.4678 116.492 33.6772 113.237 33.6772C110.434 33.6772 108.185 32.8295 106.489 31.1341C104.794 29.4386 103.946 27.3024 103.946 24.7253C103.946 22.1708 104.782 20.0458 106.455 18.3504C108.128 16.6323 110.276 15.7733 112.898 15.7733C115.385 15.7733 117.431 16.6323 119.036 18.3504C120.663 20.0684 121.477 22.1934 121.477 24.7253C121.477 25.2904 121.42 25.8895 121.307 26.5225H108.524ZM108.456 23.1316H117.103C116.854 21.9787 116.334 21.1196 115.543 20.5545C114.774 19.9893 113.893 19.7068 112.898 19.7068C111.722 19.7068 110.75 20.0119 109.982 20.6223C109.213 21.2101 108.705 22.0465 108.456 23.1316Z" fill="#113032"/>
<path d="M94.147 15.7733C96.4303 15.7733 98.3744 16.6437 99.9794 18.3843C101.607 20.1024 102.421 22.216 102.421 24.7253C102.421 27.2346 101.607 29.3595 99.9794 31.1002C98.3744 32.8182 96.4303 33.6773 94.147 33.6773C91.7734 33.6773 89.9423 32.8521 88.6538 31.2019V33.2025H84.2795V9.46626H88.6538V18.2487C89.9423 16.5984 91.7734 15.7733 94.147 15.7733ZM89.9762 28.184C90.8579 29.0656 91.9769 29.5065 93.3332 29.5065C94.6896 29.5065 95.8086 29.0656 96.6902 28.184C97.5945 27.2798 98.0466 26.1269 98.0466 24.7253C98.0466 23.3237 97.5945 22.1821 96.6902 21.3005C95.8086 20.3962 94.6896 19.9441 93.3332 19.9441C91.9769 19.9441 90.8579 20.3962 89.9762 21.3005C89.0946 22.1821 88.6538 23.3237 88.6538 24.7253C88.6538 26.1269 89.0946 27.2798 89.9762 28.184Z" fill="#113032"/>
<path d="M78.1966 16.248H82.8761L76.7046 33.2025C75.823 35.644 74.6475 37.4072 73.1781 38.4923C71.7313 39.6 69.9228 40.0973 67.7527 39.9843V35.9152C68.9282 35.9378 69.855 35.6892 70.5332 35.1692C71.234 34.6493 71.7878 33.8129 72.1947 32.66L65.2434 16.248H70.0246L74.4327 27.6415L78.1966 16.248Z" fill="#113032"/>
<path d="M54.6778 33.6772C51.1061 33.6772 48.156 32.4904 45.8276 30.1168C43.4992 27.7432 42.335 24.8157 42.335 21.3344C42.335 17.8305 43.4992 14.903 45.8276 12.552C48.156 10.1783 51.1061 8.99153 54.6778 8.99153C56.8254 8.99153 58.8034 9.50017 60.6119 10.5174C62.443 11.5121 63.8671 12.8685 64.8844 14.5865L60.8493 16.9262C60.2615 15.8637 59.4251 15.0386 58.34 14.4509C57.2549 13.8405 56.0342 13.5353 54.6778 13.5353C52.372 13.5353 50.507 14.2587 49.0828 15.7055C47.6813 17.1523 46.9805 19.0286 46.9805 21.3344C46.9805 23.6176 47.6813 25.4826 49.0828 26.9294C50.507 28.3761 52.372 29.0995 54.6778 29.0995C56.0342 29.0995 57.2549 28.8057 58.34 28.2179C59.4477 27.6075 60.2841 26.7824 60.8493 25.7426L64.8844 28.0823C63.8671 29.8003 62.4543 31.168 60.6458 32.1853C58.8373 33.1799 56.848 33.6772 54.6778 33.6772Z" fill="#113032"/>
<path fill-rule="evenodd" clip-rule="evenodd" d="M28.8639 17.5814C31.0365 13.8184 28.3207 9.11451 23.9755 9.11451L7.71467 9.11451C3.36945 9.11451 0.653688 13.8184 2.8263 17.5814L10.9567 31.6637C13.1293 35.4268 18.5609 35.4268 20.7335 31.6637L28.8639 17.5814ZM8.5312 23.7205C10.9037 27.8297 16.1581 29.2376 20.2673 26.8652C24.3765 24.4927 25.7845 19.2383 23.412 15.1291C21.0396 11.0198 15.7851 9.61191 11.6759 11.9844C7.56667 14.3568 6.15874 19.6113 8.5312 23.7205Z" fill="#113032"/>
</svg>
